<svg preserveAspectRatio="none" overflow="visible" style="display: block;" width="17.5" height="17.5" viewBox="0 0 17.5 17.5" fill="none" xmlns="http://www.w3.org/2000/svg">
<path id="Rectangle 34624346" d="M4.75 16.75H3.95C2.8299 16.75 2.26984 16.75 1.84202 16.532C1.4657 16.3403 1.15973 16.0343 0.967988 15.658C0.750001 15.2302 0.750001 14.6701 0.750001 13.55V12.75M12.75 16.75H13.55C14.6701 16.75 15.2302 16.75 15.658 16.532C16.0343 16.3403 16.3403 16.0343 16.532 15.658C16.75 15.2302 16.75 14.6701 16.75 13.55V12.75M16.75 4.75V3.95C16.75 2.8299 16.75 2.26984 16.532 1.84202C16.3403 1.4657 16.0343 1.15973 15.658 0.967988C15.2302 0.750001 14.6701 0.750001 13.55 0.750001H12.75M4.75 0.750001H3.95C2.8299 0.750001 2.26984 0.750001 1.84202 0.967988C1.4657 1.15973 1.15973 1.4657 0.967988 1.84202C0.750001 2.26984 0.750001 2.8299 0.750001 3.95V4.75" stroke="#F5F5F5" stroke-width="1.5"/>
</svg>
